HIERARCHY
ROOT Hips
{
	OFFSET 0.000000 0.000000 0.000000
	CHANNELS 6 Xposition Yposition Zposition Xrotation Yrotation Zrotation
	JOINT LeftUpLeg_virtual
	{
		OFFSET 0.000000 0.000000 0.000000
		CHANNELS 3 Xrotation Yrotation Zrotation
		JOINT LeftUpLeg
		{
			OFFSET 10.205400 -3.823500 0.155100
			CHANNELS 3 Xrotation Yrotation Zrotation
			JOINT LeftLeg
			{
				OFFSET 0.708757 -12.982077 0.567790
				CHANNELS 3 Xrotation Yrotation Zrotation
				JOINT LeftFoot
				{
					OFFSET -0.708756 -10.717838 -2.184338
					CHANNELS 3 Xrotation Yrotation Zrotation
					JOINT LeftToeBase
					{
						OFFSET 0.108149 -7.191104 7.560241
						CHANNELS 3 Xrotation Yrotation Zrotation
						JOINT LeftToe_End
						{
							OFFSET 0.070230 0.081724 4.490308
							CHANNELS 3 Xrotation Yrotation Zrotation
							End Site
							{
								OFFSET 0 0 0
							}
						}
					}
				}
			}
		}
	}
	JOINT RightUpLeg_virtual
	{
		OFFSET 0.000000 0.000000 0.000000
		CHANNELS 3 Xrotation Yrotation Zrotation
		JOINT RightUpLeg
		{
			OFFSET -10.205400 -3.823500 0.005500
			CHANNELS 3 Xrotation Yrotation Zrotation
			JOINT RightLeg
			{
				OFFSET -0.708756 -12.982134 0.610632
				CHANNELS 3 Xrotation Yrotation Zrotation
				JOINT RightFoot
				{
					OFFSET 0.708754 -10.717769 -1.945823
					CHANNELS 3 Xrotation Yrotation Zrotation
					JOINT RightToeBase
					{
						OFFSET -0.108140 -7.191069 7.372968
						CHANNELS 3 Xrotation Yrotation Zrotation
						JOINT RightToe_End
						{
							OFFSET -0.070227 0.081735 4.479403
							CHANNELS 3 Xrotation Yrotation Zrotation
							End Site
							{
								OFFSET 0 0 0
							}
						}
					}
				}
			}
		}
	}
	JOINT Spine_virtual
	{
		OFFSET 0.000000 0.000000 0.000000
		CHANNELS 3 Xrotation Yrotation Zrotation
		JOINT Spine
		{
			OFFSET 0.000000 6.876099 0.125700
			CHANNELS 3 Xrotation Yrotation Zrotation
			JOINT Spine1
			{
				OFFSET 0.000000 5.730043 0.104720
				CHANNELS 3 Xrotation Yrotation Zrotation
				JOINT Spine1_split
				{
					OFFSET 0.000000 5.730043 0.104720
					CHANNELS 3 Xrotation Yrotation Zrotation
					JOINT Spine2
					{
						OFFSET 0.000000 5.730043 0.104720
						CHANNELS 3 Xrotation Yrotation Zrotation
						JOINT Neck_virtual
						{
							OFFSET 0.000000 0.000000 0.000000
							CHANNELS 3 Xrotation Yrotation Zrotation
							JOINT Neck
							{
								OFFSET 0.000000 10.314075 0.188496
								CHANNELS 3 Xrotation Yrotation Zrotation
								JOINT Head
								{
									OFFSET 0.000000 7.643700 -2.377400
									CHANNELS 3 Xrotation Yrotation Zrotation
									JOINT HeadTop_End
									{
										OFFSET 0.000000 43.788605 -13.619600
										CHANNELS 3 Xrotation Yrotation Zrotation
										End Site
										{
											OFFSET 0 0 0
										}
									}
								}
							}
						}
						JOINT LeftShoulder_virtual
						{
							OFFSET 0.000000 0.000000 0.000000
							CHANNELS 3 Xrotation Yrotation Zrotation
							JOINT LeftShoulder
							{
								OFFSET 2.196100 4.412489 0.087492
								CHANNELS 3 Xrotation Yrotation Zrotation
								JOINT LeftShoulder_split
								{
									OFFSET 2.196100 4.412489 0.087492
									CHANNELS 3 Xrotation Yrotation Zrotation
									JOINT LeftArm
									{
										OFFSET 8.771219 -2.981674 -0.026999
										CHANNELS 3 Xrotation Yrotation Zrotation
										JOINT LeftForeArm
										{
											OFFSET 8.512804 0.000000 -0.000000
											CHANNELS 3 Xrotation Yrotation Zrotation
											JOINT LeftHand
											{
												OFFSET 18.484802 0.000000 -0.000000
												CHANNELS 3 Xrotation Yrotation Zrotation
												End Site
												{
													OFFSET 0 0 0
												}
											}
										}
									}
								}
							}
						}
						JOINT RightShoulder_virtual
						{
							OFFSET 0.000000 0.000000 0.000000
							CHANNELS 3 Xrotation Yrotation Zrotation
							JOINT RightShoulder
							{
								OFFSET -2.196100 4.412496 0.070690
								CHANNELS 3 Xrotation Yrotation Zrotation
								JOINT RightShoulder_split
								{
									OFFSET -2.196100 4.412496 0.070690
									CHANNELS 3 Xrotation Yrotation Zrotation
									JOINT RightArm
									{
										OFFSET -8.771282 -2.981682 -0.094208
										CHANNELS 3 Xrotation Yrotation Zrotation
										JOINT RightForeArm
										{
											OFFSET -8.494598 0.000000 0.000000
											CHANNELS 3 Xrotation Yrotation Zrotation
											JOINT RightHand
											{
												OFFSET -18.483803 0.000000 0.000001
												CHANNELS 3 Xrotation Yrotation Zrotation
												End Site
												{
													OFFSET 0 0 0
												}
											}
										}
									}
								}
							}
						}
					}
				}
			}
		}
	}
}
MOTION
Frames: 6
Frame Time: 0.03333333
7.784867 30.802128 -9.964821 0.000000 0.000000 0.000000 155.430517 -41.320138 163.034621 -21.789821 28.234715 25.274920 33.265190 19.646773 -2.288377 -15.852236 14.991398 -36.768701 0.227905 -0.346629 1.617769 0.000000 0.000000 0.000000 156.344615 -38.293579 163.373016 -44.365521 14.343611 11.100820 24.192872 1.517402 1.873042 -8.184324 -4.180137 5.868457 4.497292 0.053912 -1.111564 0.000000 0.000000 0.000000 157.109978 -40.588297 162.563953 35.757318 1.814824 9.767474 -9.165777 -2.401339 2.266763 0.629926 1.423273 0.578447 0.000000 0.000000 0.000000 -9.218097 -2.061066 2.228953 -10.385766 0.039187 -9.019684 -20.012623 -12.132641 7.295438 0.000000 0.000000 0.000000 -10.128893 -1.884196 2.017329 6.932358 -15.389150 25.534835 4.179843 1.771680 1.967412 -69.450279 -1.658907 -45.597394 -1.513554 -60.725730 4.965985 0.000000 0.000000 0.000000 -9.682420 -1.654814 2.360537 6.344128 5.324499 -2.487301 -3.610886 -0.313548 2.143860 -0.213369 5.964061 68.002927 14.353434 25.729903 -3.755957 0.000000 0.000000 0.000000 
7.700973 30.896854 -10.045107 0.000000 0.000000 0.000000 155.673781 -41.539141 163.329999 -20.256082 28.417356 24.313698 31.869331 19.793506 -2.108386 -15.635973 14.836189 -36.557491 0.347124 -0.327096 1.497261 0.000000 0.000000 0.000000 156.546201 -38.523322 163.607906 -43.567564 14.211661 10.763448 23.793936 1.535179 1.791551 -8.379496 -3.943700 5.729955 4.488484 0.114656 -1.046139 0.000000 0.000000 0.000000 157.302016 -40.817378 162.873442 35.512927 1.819695 9.748615 -9.117817 -2.417797 2.384721 0.559717 1.492632 0.574262 0.000000 0.000000 0.000000 -9.093851 -2.082753 2.314903 -11.217092 -3.230488 -7.827240 -17.860354 -15.878737 8.105960 0.000000 0.000000 0.000000 -10.022459 -1.924327 2.126584 6.599316 -14.770523 24.727875 4.205234 1.820293 2.271442 -69.296381 -1.126600 -45.849055 -1.373032 -60.202804 5.050891 0.000000 0.000000 0.000000 -9.517554 -1.680436 2.432142 6.213467 4.717028 -2.724723 -3.773842 -0.187777 2.101090 -0.129736 6.403894 68.349314 14.090266 25.844855 -3.516370 0.000000 0.000000 0.000000 
7.621438 30.991209 -10.115744 0.000000 0.000000 0.000000 155.881391 -41.746161 163.590995 -18.784064 28.568984 23.324109 30.514263 19.924871 -1.906578 -15.449490 14.675242 -36.365549 0.437123 -0.308181 1.405356 0.000000 0.000000 0.000000 156.711109 -38.716938 163.811651 -42.828985 14.056176 10.383376 23.416259 1.587674 1.718932 -8.498880 -3.724759 5.656287 4.451801 0.170804 -0.977240 0.000000 0.000000 0.000000 157.442868 -41.009713 163.168001 35.294084 1.860827 9.721054 -9.091247 -2.408345 2.455017 0.573217 1.508197 0.548776 0.000000 0.000000 0.000000 -8.971609 -2.084656 2.363441 -11.927706 -6.106002 -7.003008 -16.030782 -18.741938 8.582768 0.000000 0.000000 0.000000 -9.943429 -1.940863 2.197990 6.311488 -14.303457 23.865668 4.267054 1.973653 2.611251 -69.187972 -0.664111 -46.077505 -1.482505 -59.636076 4.864424 0.000000 0.000000 0.000000 -9.373520 -1.692464 2.455735 6.085235 4.123550 -2.900828 -3.894982 -0.123790 2.114141 -0.125572 6.849665 68.711232 13.851467 26.056817 -3.292782 0.000000 0.000000 0.000000 
7.546788 31.082443 -10.165443 0.000000 0.000000 0.000000 156.052583 -41.942901 163.830707 -17.404140 28.676143 22.339080 29.241860 20.041694 -1.707772 -15.260135 14.516027 -36.185280 0.501114 -0.289498 1.333449 0.000000 0.000000 0.000000 156.839230 -38.898658 164.000314 -42.170503 13.834546 9.943432 23.114065 1.675155 1.666227 -8.583677 -3.539154 5.628440 4.433040 0.218233 -0.898490 0.000000 0.000000 0.000000 157.542644 -41.185440 163.453107 35.080777 1.928931 9.695997 -9.074990 -2.379025 2.474233 0.632495 1.497262 0.541503 0.000000 0.000000 0.000000 -8.858007 -2.072990 2.372786 -12.530540 -8.480587 -6.563165 -14.550622 -20.613596 8.694345 0.000000 0.000000 0.000000 -9.889696 -1.937578 2.233188 6.064069 -13.931854 23.029542 4.291218 2.147686 2.914453 -69.121555 -0.403615 -46.259662 -1.809628 -59.199422 4.443909 0.000000 0.000000 0.000000 -9.253035 -1.696120 2.431680 5.959921 3.576116 -3.029371 -3.928266 -0.053875 2.163842 -0.192251 7.282962 69.095580 13.668351 26.373831 -3.105081 0.000000 0.000000 0.000000 
7.478635 31.166695 -10.191095 0.000000 0.000000 0.000000 156.195293 -42.145324 164.070501 -16.131595 28.738144 21.375446 28.086260 20.155332 -1.539854 -15.050344 14.369663 -35.989032 0.556827 -0.271302 1.266114 0.000000 0.000000 0.000000 156.938090 -39.097628 164.187980 -41.590545 13.523327 9.432992 22.930139 1.787459 1.635127 -8.682233 -3.403143 5.609921 4.465232 0.256574 -0.803270 0.000000 0.000000 0.000000 157.627037 -41.360071 163.740385 34.853294 2.003734 9.690084 -9.059129 -2.338910 2.454608 0.711582 1.492612 0.536515 0.000000 0.000000 0.000000 -8.765737 -2.051977 2.351316 -13.033325 -10.308322 -6.467536 -13.398552 -21.610326 8.517623 0.000000 0.000000 0.000000 -9.851575 -1.919089 2.244855 5.859127 -13.616249 22.297199 4.226114 2.286641 3.112353 -69.052953 -0.388094 -46.360951 -2.330185 -58.944027 3.829201 0.000000 0.000000 0.000000 -9.158761 -1.697265 2.376508 5.840707 3.077731 -3.121780 -3.898878 0.033762 2.213434 -0.289535 7.690156 69.509257 13.536274 26.734660 -2.951006 0.000000 0.000000 0.000000 
7.418496 31.242001 -10.191101 0.000000 0.000000 0.000000 156.325149 -42.375180 164.328423 -14.962161 28.758023 20.452600 27.050529 20.264294 -1.417001 -14.817064 14.247139 -35.759302 0.617133 -0.252948 1.189604 0.000000 0.000000 0.000000 157.021650 -39.348423 164.389457 -41.069552 13.120197 8.856085 22.871134 1.916248 1.621142 -8.827879 -3.322958 5.577961 4.528373 0.285723 -0.692106 0.000000 0.000000 0.000000 157.721649 -41.562794 164.036268 34.614350 2.063893 9.708481 -9.042527 -2.300769 2.416426 0.703618 1.543734 0.535047 0.000000 0.000000 0.000000 -8.699593 -2.033956 2.317756 -13.451528 -11.651694 -6.623768 -12.492219 -21.897231 8.189303 0.000000 0.000000 0.000000 -9.825582 -1.892928 2.249664 5.691734 -13.305358 21.702762 4.102110 2.367473 3.139677 -68.915523 -0.573766 -46.363915 -3.017931 -58.779945 3.054432 0.000000 0.000000 0.000000 -9.082967 -1.702418 2.311675 5.732289 2.638558 -3.193729 -3.847317 0.108591 2.237846 -0.365841 8.044202 69.921719 13.429069 27.038824 -2.815155 0.000000 0.000000 0.000000 
